<svg width="52" height="52" viewBox="0 0 52 52" fill="none" xmlns="http://www.w3.org/2000/svg">
<g id="Layer_x0020_1">
<g id="_2188518945984">
<g id="Group">
<path id="Vector" fill-rule="evenodd" clip-rule="evenodd" d="M21.8697 40.1031C22.0972 40.114 22.5307 40.2657 22.7799 40.3271C24.4848 40.7461 26.3124 40.84 28.0642 40.6196C28.765 40.5293 29.3646 40.3451 30.0256 40.2404L29.9967 46.1171C29.9931 46.6914 30.0725 46.612 29.7438 46.8973C28.9203 47.6089 28.2629 48.0459 27.2082 48.566C26.8831 48.7286 26.0524 49.1945 25.7092 49.0717C24.2102 48.5372 23.0652 47.5402 21.8408 46.6445L21.8552 41.9127L21.8697 40.1031ZM28.1979 46.8937C27.5441 46.8034 26.9662 46.6842 26.2366 46.6698L26.2474 46.3158C26.6917 46.518 26.912 46.4855 27.378 46.2905C27.7283 46.1424 28.1401 45.9871 28.234 45.6656C28.0137 45.4344 27.5622 45.3839 27.1612 45.42C26.6989 45.4561 26.5508 45.6187 26.2438 45.7595V45.1491C26.4605 45.2358 26.5942 45.3189 26.9012 45.2683C27.2841 45.2069 28.1509 44.8204 28.2485 44.4664C27.4105 44.0547 26.9554 44.2172 26.2474 44.6037V43.9969C26.7459 44.1955 26.894 44.1955 27.4141 43.9716C27.7645 43.8199 28.216 43.6609 28.2629 43.2998C27.9017 43.148 27.6561 43.0469 27.1576 43.1083C26.6736 43.1661 26.5942 43.2961 26.2582 43.4623C26.2366 42.953 26.7856 43.2239 26.7531 42.2631C26.7386 41.7863 26.4569 41.2806 26.0921 41.2337C25.5178 41.1651 24.8568 42.8085 25.9187 43.2456L25.8826 43.5381C25.7417 43.3395 25.3227 43.1553 24.9688 43.0939C24.6328 43.0361 24.0766 43.0433 23.831 43.3142C23.9249 43.5923 24.4125 43.8488 24.7412 43.9824C25.2902 44.2028 25.4708 44.2028 25.9043 43.921L25.8934 44.6543C25.6117 44.4664 25.3914 44.2967 24.9399 44.2353C24.6148 44.1883 24.0694 44.1919 23.8382 44.4664C23.9466 44.7157 25.0843 45.6476 25.8934 45.0841L25.8898 45.8065C25.6117 45.6909 24.7268 45.0082 23.8201 45.6259C23.9249 45.8715 24.3836 46.146 24.7015 46.2797C25.2505 46.5072 25.3769 46.4639 25.8862 46.2833L25.7959 46.6481C25.5792 46.6986 24.5317 46.7095 23.8599 46.8648C24.185 47.2404 26.3485 47.3055 27.1721 47.1863L27.9703 47.0346C28.2087 46.9587 28.122 47.0418 28.1618 46.9262C28.169 46.9045 28.1871 46.9045 28.1979 46.8937ZM18.8536 47.4536C17.8784 47.2946 16.3975 47.0996 15.8232 46.5397C15.9099 46.3483 15.9135 46.453 15.8882 46.1641C15.4186 45.839 15.155 45.8607 14.577 45.29C14.6312 45.1491 14.6023 45.243 14.6818 45.1527C15.1911 44.5676 13.8438 44.6073 14.0497 43.065C14.1255 43.0975 14.5481 43.5454 14.6926 43.6646C14.9093 43.8488 15.1441 43.9716 15.4078 44.1486L16.5817 44.824C16.6612 44.8601 16.7117 44.8746 16.7876 44.9179C16.7876 44.9215 16.8779 44.9829 16.8815 44.9866C16.9826 45.0769 16.8743 44.9432 16.961 45.0877C16.8237 45.1672 16.4661 45.4055 16.4155 45.5464C16.9537 45.8101 17.1488 45.1094 17.7014 45.3586C17.9543 45.4706 18.8284 45.7848 18.9367 45.8715C18.7381 46.0702 18.3155 46.1966 18.1782 46.518C19.0595 46.6083 19.1968 45.9365 19.735 46.0738C20.3707 46.2327 20.8583 46.2977 21.5265 46.3916C21.5554 46.7059 21.4723 46.677 21.6566 46.8648L22.5668 47.6053C22.8449 47.8039 23.6648 48.2807 23.896 48.5191C23.1664 48.8261 20.0781 48.5697 19.1101 47.9556C18.8573 47.8003 18.9259 47.7822 18.8536 47.4536ZM34.3961 45.2358C34.4611 45.1527 34.425 45.1816 34.5225 45.1166L36.5127 44.1558C36.8775 43.9571 37.2026 43.7549 37.5169 43.5562L38.4126 42.9133C38.2682 43.5743 37.8275 44.3508 37.3904 44.8312C37.022 45.2358 37.3363 45.3044 37.4049 45.4164C36.9498 45.8607 36.585 45.9148 35.9926 46.2327C35.9492 46.677 36.0107 46.4061 36.1551 46.6625C35.812 46.9587 35.1113 47.0887 34.5586 47.2043C34.0782 47.3091 33.1102 47.4138 32.7526 47.5402C32.731 47.8003 32.7273 47.8725 32.879 47.9339C32.3987 48.3277 28.7289 48.66 27.8367 48.6383C27.9089 48.548 27.8331 48.6238 27.927 48.5444L29.2418 47.6992C29.4802 47.5366 29.668 47.3416 29.8703 47.1754C30.2206 46.8865 30.264 47.0418 30.3037 46.4711C31.0947 46.323 30.8094 46.3194 31.5173 46.565C31.8171 46.6697 32.4167 46.8973 32.7635 46.7167L31.6979 46.1785C31.7521 46.1279 31.7196 46.1496 31.7954 46.1027L32.1386 45.9871C32.2939 45.9437 32.4023 45.9076 32.554 45.857C32.8502 45.7595 33.0885 45.6837 33.3667 45.5753C34.201 45.2466 34.2805 45.9257 35.1763 45.6801C35.0968 45.4886 34.6128 45.3116 34.3961 45.2358ZM18.8645 42.9638C18.9656 42.8735 19.1137 42.7868 19.2835 42.7796C19.2546 42.8771 19.1932 43.0252 19.139 43.1264L18.8645 42.9638ZM35.4291 42.9855C35.3966 43.2167 35.346 42.9747 35.3749 43.2094C35.4255 43.5923 35.9384 43.2058 36.408 43.0469C36.8486 42.8988 37.5132 42.7218 38.0009 42.7399C37.6613 43.1733 35.0788 44.5965 34.3094 44.7987L34.6706 44.3147C34.3094 44.2858 34.1144 44.5206 33.9265 44.6723C33.7423 44.8204 33.5364 45.1274 33.3558 45.2069C32.9621 45.3839 32.1458 45.6403 31.7377 45.7379C31.7991 45.4814 32.4059 44.8565 32.4926 44.6434C32.0844 44.7157 31.6148 45.1816 31.3801 45.3767C30.7769 45.8787 30.9864 45.9365 30.683 46.034C30.5963 46.0629 30.4084 46.0954 30.2929 46.1099L30.3073 43.7513C30.7444 43.567 31.8316 43.1011 32.4023 43.2239C32.4023 43.307 32.0302 44.0294 32.796 43.6429C33.3125 43.3792 34.9993 42.6315 35.4074 42.8699L35.4291 42.9855ZM16.961 44.6145C16.2638 44.3906 14.4903 43.13 14.2628 42.7327C14.8985 42.6243 15.6642 43.0288 16.0435 43.2853C16.3578 43.0288 16.1808 43.2058 16.2422 42.8121C17.0332 42.5665 18.0807 42.9385 18.8139 43.2998C18.9439 43.3648 19.0487 43.4334 19.1715 43.4948C19.3665 43.5887 19.3666 43.5743 19.5399 43.484L19.511 43.0289C20.1395 42.9458 21.1039 43.4804 21.5482 43.7007L21.5374 46.0088C21.2412 46.034 19.7458 45.8498 19.5399 45.5753C19.2907 45.2466 18.7525 44.4014 18.3082 44.4195C18.4563 44.7193 18.8067 45.1419 18.897 45.4561C18.6442 45.3875 17.8098 45.0913 17.6545 44.9577C17.3691 44.7084 17.2644 44.1666 16.7334 44.1558C16.7876 44.4086 16.8743 44.387 16.961 44.6145ZM18.767 42.5376C18.655 42.581 18.5069 42.758 18.3913 42.7652C18.348 42.7688 17.9904 42.6424 17.8892 42.6135C17.5208 42.5087 17.1163 42.4256 16.6937 42.4184C16.5095 42.3245 16.6901 42.4293 16.56 42.2378C16.4011 42.0067 16.3216 42.05 16.0832 41.5696C15.9135 41.2265 15.7871 40.8219 15.9279 40.4282C16.2422 40.9086 16.7262 41.2481 17.2499 41.6057L18.767 42.5376ZM35.3497 41.7105C35.6314 41.519 35.877 41.4035 36.1624 41.2012C36.8234 40.7316 36.3177 40.8725 37.0401 40.7136C36.7475 41.1976 35.8192 42.0753 35.57 42.5593L35.1474 42.4979C35.3858 42.3137 35.5447 42.0211 35.3497 41.7105ZM13.9702 42.4943C13.9197 42.5557 13.9197 42.5485 13.8871 42.6135C13.8438 42.6893 13.7932 42.8374 13.7716 42.9422C13.5693 43.8343 14.0461 44.3834 14.4181 44.9071L14.2411 45.0985C13.9522 45.0227 13.6379 44.8674 13.4393 44.7265C13.5584 44.5531 13.4609 44.7048 13.5765 44.6037C13.7065 44.4881 13.6162 44.6579 13.6957 44.4664C13.7427 44.2136 13.6162 44.2425 13.3164 44.1377C12.7349 43.9355 10.8747 43.3178 10.7555 42.8627C11.03 42.6749 11.0337 42.8374 11.0626 42.4293C10.7158 42.2487 9.84892 41.5913 9.76946 41.2084C9.98618 41.1145 10.4016 41.2156 10.1848 40.8183C10.0837 40.6269 9.97896 40.5221 9.88866 40.2657C9.69 39.7203 9.87782 39.146 10.1848 38.9401C10.1921 38.9509 10.1993 38.969 10.2029 38.9762C10.8494 40.114 11.3624 40.3271 12.3484 41.147C12.6085 41.3637 12.93 41.5082 13.1467 41.7683C12.9986 41.8116 12.8072 41.8586 12.6229 41.8983L12.269 41.9958C12.1895 42.0319 12.2148 42.0211 12.1714 42.0608C12.269 42.1692 12.2076 42.1367 12.3737 42.1836C12.4243 42.1981 12.5796 42.2125 12.6374 42.2161C12.8035 42.2198 13.0058 42.1981 13.1684 42.1764C13.9233 42.0753 13.6126 42.1584 14.1183 42.3462L14.0244 42.4401C14.0136 42.4509 13.9811 42.4834 13.9702 42.4943ZM19.9228 40.5438C19.8144 40.5402 19.0198 40.1031 18.8609 40.0201C19.0451 40.0562 19.2618 40.1681 19.4677 40.2368C19.7169 40.3235 19.9228 40.2946 19.9228 40.5438ZM18.7597 42.1042C18.1276 41.8875 16.5311 40.6919 16.1049 40.1248C16.9104 40.049 17.3691 40.4643 17.8892 40.7388C18.0157 40.6594 18.0229 40.6558 18.1132 40.533C17.9976 40.3921 18.0518 40.2693 18.0518 40.2693L18.0771 40.179C18.6947 40.1031 19.9878 41.0278 20.0673 41.0422C20.6091 41.1289 19.8397 40.3018 20.6163 40.5005C20.9305 40.5799 21.2881 40.7894 21.5663 40.9014L21.5518 43.2781C21.2737 43.2528 21.2881 43.1228 21.1726 42.9422C21.0136 42.7002 20.4393 41.9561 20.1287 41.9416C20.1504 42.1547 20.5404 42.5954 20.6271 42.9277C18.7525 42.5376 19.3629 41.6166 18.5466 41.6455C18.6153 41.8586 18.7056 41.8983 18.7597 42.1042ZM13.3815 41.4035C12.8866 41.2012 10.8097 39.4205 10.5749 38.7378C11.4165 38.8245 11.7958 39.1171 12.3773 39.518C12.4821 39.5902 12.7458 39.7925 12.8361 39.825L13.013 39.7275C13.0925 39.4313 12.9878 39.2543 13.4067 39.3446C13.9702 39.4638 15.1766 40.2765 15.4873 40.6088C15.6101 40.7388 15.6028 41.7466 16.2169 42.2992C16.1374 42.3931 16.1338 42.3967 16.0327 42.469C15.9207 42.1945 15.5234 41.6238 15.2525 41.5732C15.2814 41.9127 15.5198 42.2703 15.5378 42.6568C15.285 42.5737 15.0177 42.4762 14.801 42.3498C14.0569 41.9164 14.1653 42.0681 13.9774 41.6202C13.8438 41.2915 13.6126 40.8761 13.2117 40.8689L13.3815 41.4035ZM12.7566 39.3699C12.688 39.341 11.9945 38.9076 11.9439 38.8498C11.7597 38.6403 11.85 38.066 11.98 37.8637C12.2112 38.308 12.5868 38.7992 12.8975 39.0412C12.8469 39.2362 12.818 39.1785 12.7566 39.3699ZM34.0855 40.2368C34.1974 40.0995 34.5731 39.8539 34.7465 39.7347C35.2774 39.3699 35.9276 38.8209 36.3899 38.373C36.5127 38.2502 36.5561 38.1563 36.7258 38.0912C36.7728 38.9762 35.8373 40.0598 35.9529 40.3199C36.1082 40.598 36.1298 40.3126 36.296 40.6594C36.1154 40.9736 35.1871 41.4576 34.732 41.6744L34.8006 41.9236C34.909 41.9597 34.8765 41.9344 34.9704 41.9561L35.1366 42.0103C35.0174 42.2487 34.8548 42.357 34.6742 42.5159C34.4864 42.6857 34.3094 42.7002 34.0421 42.7941C33.6159 42.9458 33.1897 43.1589 32.7671 43.3142L32.6154 43.018C32.3914 42.7868 31.7954 42.9241 31.5426 42.9891C31.1019 43.1047 30.6938 43.3142 30.3145 43.4009L30.3218 42.3606C30.7191 42.1403 30.8924 41.9705 31.4198 42.0536C31.7991 42.1186 32.4348 42.2523 32.749 42.1006C32.5106 41.8333 31.9146 41.92 31.6835 41.6346C32.135 41.4612 32.7671 41.0278 33.1897 40.7822C33.7134 40.4824 34.797 40.6883 35.0101 40.3126C34.7753 40.2223 34.3853 40.2621 34.0855 40.2368ZM16.7731 38.3874C16.5925 38.3007 16.3289 38.0551 16.1663 37.9323C15.7329 37.6036 14.7576 36.7151 14.577 36.2491C14.9346 36.2672 15.155 36.3647 15.397 36.4984C15.5703 36.5959 15.8629 36.8307 15.9785 36.9607C16.1808 36.9101 16.1049 36.8957 16.2891 36.809C17.0982 37.7192 19.0306 38.9039 20.1829 39.4241C20.4465 39.5433 20.6922 39.648 20.9558 39.7528C21.5699 39.9984 21.5879 39.872 21.559 40.2079C21.0823 40.4463 19.6375 39.937 19.2185 39.7817C18.9439 39.6805 18.9439 39.695 18.8139 39.4385C18.6694 39.1532 18.1638 38.3621 17.8965 38.2718C17.9181 38.5211 18.2324 39.0376 18.3263 39.3482C18.1638 39.3013 17.4016 38.8678 17.3294 38.7739C17.0838 38.4669 17.0296 37.9468 16.5528 37.9034L16.7731 38.3874ZM31.8243 39.6119C32.3156 39.406 32.7526 39.1857 33.2077 38.9437C34.5225 38.2357 34.4069 37.954 35.2702 37.9359C35.6097 37.9251 35.942 37.9287 36.2816 37.9504C36.0721 38.308 34.2986 39.7166 33.9446 39.825L34.2083 38.9653C33.6267 39.0809 33.54 40.1392 33.1897 40.3849C33.0163 40.5041 31.8099 41.2265 31.6401 41.2445C31.7521 41.0567 32.0736 40.4607 32.1241 40.2404C31.3584 40.3957 31.297 41.7863 30.3218 41.9055L30.3326 40.1681L31.8243 39.6119ZM10.9361 37.7951C11.2684 37.8492 11.3949 37.8529 11.6694 37.73C11.6513 37.8854 11.5971 37.9829 11.5755 38.1563C11.5538 38.3405 11.5718 38.4994 11.561 38.6583L10.5352 38.4055C10.6327 38.2899 10.6941 38.261 10.7736 38.1454L10.9361 37.7951ZM17.6942 40.244C17.3366 40.1537 15.9315 39.2399 15.6173 40.2693C15.3933 40.2043 15.3608 40.0923 15.1513 39.9478C15.0285 39.8575 14.8479 39.7239 14.7107 39.6372C14.4687 39.4855 14.0425 39.2362 13.7174 39.1243C13.4212 39.0268 13.3959 39.0882 13.1936 38.8967C12.9589 38.68 12.3159 37.8637 12.2292 37.6072C12.706 37.6614 13.0961 37.9106 13.3706 38.1238C13.4537 38.1924 13.7896 38.5138 13.8221 38.5283C14.1544 38.6656 14.0641 38.261 14.0677 38.0407C14.559 38.0696 15.0358 38.4994 15.3428 38.7559C15.527 38.9112 15.7004 39.1062 15.8701 39.2362C16.2819 39.5324 16.1844 38.875 16.2024 38.7703C16.7551 38.7884 17.575 39.6155 17.9145 39.8358C17.8459 40.0237 17.8062 39.9984 17.6942 40.244ZM10.5822 37.7048C10.5822 38.2321 10.127 38.2466 9.6322 38.2574C9.16987 38.2682 8.81589 38.5969 8.5161 38.4235C8.05376 38.1526 7.94179 36.5236 8.28132 36.0541C9.48411 36.3539 8.7581 36.018 9.33963 36.6934C9.98979 37.4519 10.3474 37.4917 10.5822 37.7048ZM14.4434 37.3977C14.3784 37.1449 14.3495 36.8487 14.4217 36.5778C14.5229 36.9499 16.0074 38.2863 16.2819 38.4199C16.1663 38.4886 16.1519 38.4488 16.0327 38.5427L15.8665 38.7342C15.8629 38.727 15.8521 38.7559 15.8412 38.7667C15.6462 38.6583 15.5053 38.4922 15.3103 38.3369C14.6926 37.8529 14.6168 38.0515 14.4434 37.3977ZM38.0153 44.582C38.102 44.3328 38.2826 44.0836 38.391 43.8307C38.5029 43.5743 38.5896 43.3648 38.6871 43.0758C38.8244 42.6568 38.7738 42.6713 39.0664 42.4004C39.601 41.9055 41.035 40.2584 41.6129 39.6408C42.0066 39.2254 42.2486 38.8714 42.5953 38.4669C43.2455 37.712 43.8379 36.8018 44.4158 36.036C44.6542 35.7254 45.1635 35.0861 45.3982 34.9235C45.5211 35.2125 45.438 36.278 46.229 35.8229C46.2362 36.455 45.1815 38.2213 44.8926 38.7125C44.0726 40.1067 42.1619 42.2162 40.8038 43.1372C40.2295 43.5273 38.8497 44.452 38.0153 44.582ZM9.88143 35.7073C11.0915 35.776 10.9867 35.6929 11.9186 35.4256C12.2942 35.3208 12.3918 35.7254 12.2762 36.0432C12.1678 36.3358 11.9692 36.4514 11.8319 36.7476C11.7091 37.0149 11.7344 38.0046 10.4991 37.2894C9.60692 36.7729 9.62137 36.4442 9.31435 36.1805C9.41187 36.0505 9.29268 36.1805 9.40826 36.0866L9.62498 35.9457C9.73695 35.8663 9.79113 35.7976 9.88143 35.7073ZM7.63116 35.2883C7.63838 35.2992 7.64922 35.3136 7.65283 35.3208C7.66005 35.3245 7.67089 35.3425 7.67811 35.3497C8.04654 35.8988 7.9743 35.9096 7.90206 36.1733C7.55169 37.5278 8.16573 38.0298 7.69256 38.2177C7.34942 38.3549 7.0135 37.9829 6.89792 37.8348C6.60896 37.4555 6.60535 37.4989 6.18635 37.2424C5.40977 36.7729 6.86541 35.5231 7.63116 35.2883ZM41.2192 35.9024C40.764 36.986 38.8677 39.052 37.8528 39.8358C37.6108 40.0201 36.3719 40.9953 36.5597 40.1537C36.7656 39.2471 37.7914 37.5494 38.2356 36.9643C38.7377 36.3069 39.8899 34.7357 40.5726 34.4901C40.5762 34.8224 40.5762 35.1475 40.6665 35.4653C40.8002 35.9421 40.8616 35.7832 41.2192 35.9024ZM35.765 42.9385C35.7795 42.6135 35.9745 42.5196 36.1551 42.2956C36.3032 42.1114 36.4441 41.9055 36.5994 41.7321L37.9828 40.114C39.0122 39.2326 39.5901 38.7017 40.4715 37.5964C41.0638 36.8451 41.2155 36.4875 41.6418 35.7651C41.7537 35.5737 41.9596 35.4111 42.1005 35.2197C42.2414 35.0319 42.4147 34.8729 42.57 34.6887C42.7181 34.5154 42.8193 34.2986 43.0215 34.1975C43.0288 34.6201 43.0215 35.0608 43.1299 35.4473C43.3033 36.0469 43.5597 35.859 43.9354 35.7001C43.8342 36.0216 43.4369 36.6645 43.2455 36.9679C42.2016 38.6367 40.2548 40.9375 38.5968 41.9344C37.8058 42.4076 38.0731 42.3751 37.2749 42.5123C36.715 42.6099 36.1768 42.8771 35.765 42.9385ZM44.4158 35.487C44.4989 35.2558 44.4122 35.4942 44.4627 35.3461L45.019 33.8833C45.1418 33.5907 45.5319 32.6552 45.568 32.3698C45.5752 32.7057 45.5066 33.02 45.4741 33.3487C45.3405 34.8585 45.6077 34.2481 44.9684 34.9344C44.7264 35.1908 44.6433 35.3497 44.4158 35.487ZM8.62084 34.0241C9.91033 33.6882 10.239 35.5231 9.14097 35.8482C7.94179 36.2058 7.38193 34.342 8.62084 34.0241ZM10.0512 35.4184C10.0873 35.2016 10.1054 35.1186 10.109 34.8946C10.1198 34.2806 10.6905 34.5443 11.2215 32.7455C11.7958 32.6877 11.868 33.0453 12.0017 33.5329C12.1425 34.0386 13.1647 34.7212 11.5068 35.263C11.0517 35.4111 10.5677 35.4364 10.0512 35.4184ZM42.3425 34.3926C42.5917 34.0566 42.841 33.2295 43.0179 32.7852L43.1407 32.5793C43.0721 33.5799 43.1624 33.5799 42.6712 34.0891L42.3425 34.3926ZM6.00575 36.1263C5.38088 36.148 5.31586 35.7651 5.40616 35.18C5.48924 34.6598 5.20389 34.1867 5.46757 33.9411C6.03826 33.4101 7.34581 33.8869 7.86594 34.1108C7.80453 34.3312 7.7359 34.3564 7.67811 34.5587C7.62754 34.7285 7.64922 34.8224 7.57698 34.9452C7.39638 35.0933 6.8907 35.2956 6.67759 35.4509C6.42114 35.6387 6.13217 35.9132 6.00575 36.1263ZM8.9098 33.6738C7.95985 33.7641 8.38606 34.0566 7.87677 33.8002C6.72816 33.2259 6.20441 33.6449 6.01298 33.0633C5.83238 32.5251 6.61257 32.3373 6.92682 32.0411C7.04601 31.9256 7.12909 31.7847 7.223 31.6908C7.8262 31.0948 8.91703 32.7852 8.9098 33.6738ZM9.24211 33.7352C9.18793 33.3812 9.13014 33.1356 9.01094 32.8213C8.93509 32.6191 8.64974 32.1206 8.63529 32.0375C8.45469 30.9431 9.98618 31.6872 10.0404 31.698C10.3221 31.7486 11.3226 31.5066 10.8494 32.9622C10.6941 33.4498 10.2679 34.1361 9.98257 34.3312C9.69 33.988 9.76224 33.9338 9.24211 33.7352ZM6.44281 29.0865C6.54033 29.343 6.58006 29.6933 6.68842 29.9859C6.90514 30.5819 7.28079 30.9395 7.28079 31.0984C7.28079 31.7088 6.1394 31.1851 6.1394 31.1851C5.87572 31.0876 5.35559 31.1562 5.18222 30.99C4.98356 30.8022 5.00523 30.3905 5.07025 30.0907C5.2075 29.473 5.52536 29.0251 5.82154 28.6459L6.44281 29.0865ZM45.8967 35.6351C45.4597 34.891 45.8389 32.666 46.0014 31.8208C46.117 31.2284 46.2471 30.6794 46.4168 30.1232C46.6769 29.2707 46.8286 29.1479 47.0236 28.6206C47.1862 28.747 47.5763 29.7764 48.0603 29.0649C48.1686 28.9059 48.1759 28.8192 48.3059 28.6856L48.3276 29.1407C48.4107 30.5674 46.9803 35.2956 45.8967 35.6351ZM41.0386 35.5881C40.4354 34.3962 41.5298 29.2599 42.2305 28.5953C42.4472 28.8843 42.505 29.2599 42.7904 29.3827C43.1624 29.5416 43.3286 29.101 43.4767 28.8915C43.6573 30.5385 42.0246 35.4075 41.0386 35.5881ZM43.4875 35.5484C43.1155 34.6562 43.4225 32.648 43.5995 31.6655C43.8379 30.3507 44.1304 29.5127 44.6469 28.4508C44.8023 28.7037 44.8817 29.0901 45.1057 29.2743C45.4958 29.585 45.7089 29.1299 45.875 28.9457C45.9906 30.7047 44.4627 35.4509 43.4875 35.5484ZM6.77872 29.1335C7.02795 29.1299 7.39999 28.9962 7.50835 29.0179C7.75035 29.0685 8.23075 29.5525 9.56719 29.5633C9.88866 30.0473 9.55635 30.3146 9.13375 30.5494C8.45108 30.9286 8.58472 31.2935 8.13684 31.2537C7.47945 31.1959 6.87625 29.9462 6.77872 29.1335ZM5.60121 27.7104C5.60482 27.8946 5.66623 28.2016 5.66261 28.2991C5.65539 28.4833 5.26529 28.7578 4.97272 29.4405C4.756 29.9426 4.79573 30.2676 4.62958 30.3507C3.97581 30.6794 3.89996 29.4405 3.58571 29.0287C3.30037 28.6567 3.35093 28.4364 3.6724 28.1871C4.10223 27.8548 4.92215 27.6237 5.60121 27.7104ZM46.1568 29.7295C46.2073 28.6134 46.0629 28.5519 46.2109 27.7067C46.3193 27.0963 46.3663 26.4245 46.3988 25.7707C46.5144 26.0849 46.5288 26.5112 46.5974 26.8724C47.0273 29.101 47.0525 27.6345 46.4024 29.2599C46.3338 29.4369 46.3482 29.4875 46.2254 29.6572L46.1568 29.7295ZM43.8054 29.4188C43.7945 28.8915 43.762 28.7398 43.697 28.2702C43.6717 28.086 43.8017 27.5009 43.8342 27.2336C43.9245 26.4389 43.9101 25.7201 43.9354 24.9183C44.004 25.0591 44.2749 27.0241 44.3652 27.4069C44.5278 28.0896 44.6217 27.9271 44.3002 28.4544C44.0546 28.859 43.9968 29.2563 43.8054 29.4188ZM6.61618 26.9627C7.84426 26.6376 8.3066 28.5556 7.05685 28.8084C5.83599 29.054 5.42783 27.2805 6.61618 26.9627ZM7.74674 28.7867C7.8262 28.6459 7.90567 28.5881 7.98513 28.3966C8.11516 28.0932 7.99236 28.1691 8.29576 28.0535C8.89536 27.8223 9.3902 27.4214 9.77307 26.9771C10.0548 26.652 10.3076 27.0638 10.3293 27.3925C10.3654 27.8946 10.221 27.9524 10.3438 28.5845C10.5388 29.585 8.68947 29.3466 7.74674 28.7867ZM5.67706 27.3817C3.99387 27.4395 4.14196 27.6815 3.75187 27.7573C3.44485 27.8115 3.26786 27.49 3.36177 27.1324C3.45929 26.7785 3.61461 26.7026 3.74464 26.4064C3.88551 26.0777 3.7916 25.7093 4.09139 25.5973C4.78129 25.3373 5.91184 26.2367 6.26582 26.7748C5.79987 27.0313 5.97325 27.0385 5.67706 27.3817ZM7.94179 27.2769C7.81537 27.0602 7.71062 27.0855 7.71062 26.8399C7.71423 26.4823 7.8551 26.1355 7.83704 25.6334C7.8262 25.4059 7.75758 25.2217 7.83704 25.0447C8.10072 24.4632 8.65335 24.7774 8.96398 25.1531C9.27462 25.5287 9.53829 25.4673 9.77668 25.6949C10.3293 26.2222 8.9098 27.6128 8.12961 27.7826C8.04292 27.6237 8.03209 27.4286 7.94179 27.2769ZM6.57645 26.6376C5.5687 25.4203 5.14971 25.6623 5.01607 25.2434C4.81379 24.6185 5.47479 24.5571 5.91545 24.5101C6.61979 24.4379 6.9521 23.7877 7.35303 24.7124C7.63838 25.377 7.52641 26.0452 7.42888 26.7459C7.03518 26.6593 7.05685 26.6267 6.57645 26.6376ZM47.6269 28.9926C46.7022 27.6562 46.2832 22.8992 46.7889 21.8445C47.0273 22.0251 47.2042 22.491 47.7388 22.3826C47.9808 22.1948 47.9266 22.1443 48.0278 21.8408C48.6743 23.0328 48.5949 28.7145 47.6269 28.9926ZM42.9312 29.1082C42.6098 28.9673 42.328 27.8765 42.245 27.5767C41.8729 26.2114 41.6129 24.0406 41.7682 22.621C41.8368 21.9998 41.9596 21.8047 41.9596 21.8047C41.9632 21.7831 41.9741 21.7794 41.9813 21.7722C42.18 21.9239 42.3642 22.1876 42.552 22.3646C42.8662 22.6608 42.9601 22.6247 43.3286 22.4802C43.5634 23.7227 43.65 24.6546 43.6248 25.9874C43.6139 26.4317 43.4911 28.8337 42.9312 29.1082ZM45.3874 29.0576C45.1454 28.9529 45.0515 28.617 44.9612 28.3713C44.8673 28.1221 44.7842 27.8548 44.712 27.5623C44.5639 26.9771 44.4519 26.4028 44.3724 25.7888C44.2532 24.8352 44.1629 23.7769 44.2496 22.8125C44.2677 22.6391 44.2857 22.4729 44.3074 22.3176L44.4338 21.9167C44.6253 22.0648 44.7842 22.4007 45.1021 22.4729C45.5211 22.5741 45.5427 22.2129 45.6728 21.942C46.034 23.0509 46.1495 24.3548 46.1062 25.6371C46.0773 26.5112 45.9437 28.6711 45.3874 29.0576ZM9.53107 23.1159C9.58886 23.748 9.1482 23.748 8.59917 23.813C8.13322 23.8708 7.82259 24.2501 7.47584 24.0406C7.02795 23.7697 6.8329 22.2346 7.12909 21.588C7.42888 21.6458 7.48668 21.7036 7.8551 21.7108C7.98874 22.0214 8.34272 22.3249 8.58472 22.5271C8.77255 22.6861 8.8484 22.7583 9.05067 22.863C9.19876 22.9425 9.40104 23.0256 9.53107 23.1159ZM6.81846 23.5891C6.35612 23.8925 6.0202 23.5168 5.77459 23.2351C5.50007 22.9208 4.91854 22.8594 4.88603 22.4766C4.83547 21.8445 5.95157 20.8656 6.50421 20.7464C6.57645 21.104 6.7715 21.1798 6.81846 21.3496C6.86541 21.5194 6.7426 21.8842 6.72093 22.0612C6.62702 22.7619 6.79317 23.0256 6.81846 23.5891ZM8.73282 21.1943C9.19876 21.1943 9.5419 21.1979 9.98979 21.0823C10.2896 21.0101 10.7411 20.75 10.9975 20.7753C11.3515 21.234 10.9831 21.5555 10.7808 21.9311C10.5533 22.3465 10.7194 22.8992 10.1343 22.9172C9.30712 22.9425 8.46553 22.0431 8.15128 21.6458C8.46553 21.4219 8.47275 21.476 8.73282 21.1943ZM7.44694 19.54C8.73643 19.2005 9.07957 21.0823 7.95985 21.3677C6.72454 21.6819 6.24776 19.8542 7.44694 19.54ZM43.9607 22.6572C43.9209 23.0509 43.8957 23.4879 43.8957 23.8961C43.8884 23.8852 43.8812 23.8672 43.8776 23.8563C43.8776 23.8491 43.8704 23.8311 43.8668 23.8166L43.7114 22.8486C43.6464 22.5235 43.5308 22.2273 43.4767 21.942C43.4153 21.6386 43.4297 21.1871 43.3719 20.8403C43.3177 20.508 43.2238 20.1938 43.1805 19.8651L44.1593 21.5483C44.1774 21.635 43.9823 22.4188 43.9607 22.6572ZM45.4885 19.7242L46.3663 21.2015C46.713 21.7578 46.3663 21.7036 46.2832 23.0942C46.1857 22.8558 46.1604 22.5127 46.0881 22.2382C45.8136 21.2124 45.6583 21.6928 45.4885 19.7242ZM8.88813 20.8764C8.93148 20.6453 8.97482 20.5008 8.92786 20.2335C8.88452 19.9771 8.79061 19.9915 8.9387 19.7892C9.15542 19.4967 9.28184 19.3377 9.43716 18.9765C9.5997 18.6045 9.56719 18.283 9.91755 18.1566C10.6002 17.9074 10.5785 18.7706 11.1565 19.5075C11.7091 20.2082 10.0512 21.0209 8.88813 20.8764ZM4.79935 21.8047C4.22143 21.7939 4.15641 21.4074 4.25032 20.8475C4.32979 20.3635 4.06611 19.8434 4.30811 19.6122C4.79573 19.1427 6.14662 19.5183 6.62702 19.7676C6.53311 20.0276 6.48615 20.0746 6.45003 20.3997C5.71318 20.7717 5.08469 21.1726 4.79935 21.8047ZM4.81741 19.0777C4.6946 18.8826 4.55734 18.749 4.73433 18.4347C4.84269 18.2505 4.97633 18.1494 5.18583 18.0338C5.78542 17.7015 5.66984 17.2392 6.12495 17.2572C6.78956 17.2789 7.47584 18.4708 7.61671 19.1716C6.45726 19.587 6.981 19.5436 6.37779 19.3269C5.73847 19.0993 5.52175 19.1282 4.81741 19.0777ZM8.05737 19.251C7.85871 19.1535 7.99958 19.3052 7.90928 19.0993C7.7648 18.7562 7.75035 18.5359 7.55892 18.1963C7.4325 17.9688 7.08936 17.5462 7.08213 17.3728C7.03879 16.4915 8.21269 17.0044 8.31744 17.0297C8.83395 17.1525 9.46966 16.7551 9.42632 17.8243C9.39742 18.572 9.01455 19.186 8.70031 19.6303L8.05737 19.251ZM12.0306 17.0658C12.0233 17.6618 11.5682 17.6509 11.03 17.5245C10.4955 17.4017 10.0079 17.7196 9.77668 17.3295C9.33602 16.5745 9.98618 15.397 10.1559 14.9383L10.8386 15.314C10.9217 15.4368 11.3118 16.6468 12.0306 17.0658ZM39.6624 15.8666C40.1536 16.0219 40.8435 16.7154 40.8218 15.4693C41.584 15.9894 43.5959 20.7789 43.0649 22.2671C42.5014 22.2923 41.2914 20.1721 40.9519 19.5075C40.5112 18.6587 39.7021 16.9972 39.6624 15.8666ZM44.1738 15.6174L44.1882 15.8955L43.8848 15.4657L44.1738 15.6174ZM11.8139 15.0647C11.9403 15.0322 12.287 15.1875 12.4748 15.2309C13.1684 15.379 13.4934 15.2345 14.093 15.2706C14.3495 15.8233 13.9341 16.0761 13.6307 16.3145C13.2839 16.5926 13.2912 17.2066 12.7458 17.12C12.1389 17.0224 11.3443 15.9713 11.1745 15.3212L11.8139 15.0647ZM45.2357 22.1768C44.3074 21.9637 42.3353 17.5823 42.1944 15.8738C42.4472 15.9786 42.7543 16.2675 43.101 16.1447C43.4478 16.0219 43.2888 15.4621 43.2419 15.1225C43.7584 15.4187 44.5711 17.5823 44.7878 18.2794C44.9937 18.9512 45.7269 21.5122 45.2357 22.1768ZM47.5907 22.1081C46.6299 21.8083 44.6542 17.5245 44.5025 15.881C44.7228 15.9713 45.1635 16.3398 45.4922 16.1339C45.7847 15.9497 45.6114 15.3898 45.5572 15.0864C46.4891 15.7474 48.3204 21.1437 47.5907 22.1081ZM9.83086 13.9306C9.86337 14.8083 10.1596 14.4326 9.84892 14.9311C9.14458 16.0616 9.55274 16.7299 9.19154 16.7696C8.74365 16.8166 8.61362 16.5457 8.46914 16.235C8.22352 15.7113 8.19824 15.8196 7.90567 15.4982C7.35664 14.8986 8.77616 14.0281 9.83086 13.9306ZM40.8255 15.0214C40.5618 14.7938 40.4787 14.494 40.4859 14.4832C40.4931 14.4724 40.504 14.4615 40.504 14.4435C40.5076 14.429 40.5257 14.429 40.5329 14.4182C40.5798 14.4796 40.522 14.411 40.6015 14.4976L41.0097 14.8877C41.4178 15.3103 41.8368 15.4295 41.891 15.816C41.9235 16.0725 41.9741 16.3687 41.9957 16.6287C41.7971 16.4517 41.4539 15.5596 40.8255 15.0214ZM12.3268 13.8475C12.7638 13.591 13.1973 13.1648 13.5007 12.7278C13.6451 12.5147 14.4037 12.0523 14.4759 13.4682C14.5156 14.1653 15.1911 14.6168 14.0822 14.9239C13.2876 15.1442 12.818 14.96 12.11 14.8336C12.1751 14.4435 12.3484 14.4579 12.3268 13.8475ZM10.8494 13.1179C11.3949 12.9553 11.8716 13.3382 11.9981 13.7608C12.1751 14.3568 11.7813 14.8263 11.3515 14.9455C10.1596 15.2706 9.57802 13.4935 10.8494 13.1179ZM10.2426 13.0348C10.1704 13.219 10.2065 13.1287 10.0945 13.284C9.54913 14.0353 9.97173 13.3165 8.59556 13.9811C8.38606 14.0823 7.92012 14.4254 7.83704 14.4254C7.53002 14.4254 7.42166 14.0353 7.54808 13.638C7.68534 13.1937 7.77925 13.2912 7.8551 12.6519C7.99597 11.4672 9.94645 12.7025 10.2426 13.0348ZM10.4738 12.8759C9.83809 12.0523 8.80506 12.0523 8.68947 11.7453C8.49442 11.2071 9.2096 11.0482 9.54913 10.9326C10.1921 10.7159 10.3546 10.0043 10.9795 10.9687C11.2504 11.3877 11.4274 12.1896 11.3804 12.8108C10.882 12.7242 10.8783 12.847 10.4738 12.8759ZM25.3444 11.5611C25.4564 11.4491 25.9548 11.0626 26.1282 10.994L26.8578 11.5575L25.3444 11.5611ZM11.691 12.9192C11.673 12.5183 11.6874 12.1679 11.6007 11.7923C11.5502 11.5611 11.3407 11.106 11.4057 10.8893C11.6477 10.0513 12.6843 10.9615 12.8288 11.0229C13.0817 11.1277 14.0858 11.1024 13.3453 12.3774C12.9733 13.0203 12.7999 13.1215 12.2545 13.5405C12.0378 13.2154 11.9872 13.1757 11.691 12.9192ZM37.0473 38.2899C36.9317 37.5205 36.5741 37.6361 35.2449 37.6217L29.1587 39.7094H23.7913L19.576 38.5211L16.0832 36.1083L15.2633 35.7326L15.8304 36.4008C15.3608 36.2166 15.285 35.9024 14.3278 35.9602C13.9558 36.6862 14.0714 36.9535 14.2267 37.7409C13.8113 37.7517 13.9088 37.824 13.7391 38.0407C13.2009 37.6217 12.9155 37.3833 11.9872 37.2641C12.1028 36.6428 12.3087 36.7115 12.5074 36.2708C12.7602 35.7001 12.6013 35.5773 12.3665 35.2016C12.4423 35.068 12.4026 35.1366 12.5037 35.0174C13.0781 34.3492 12.5724 34.118 12.352 33.6376C12.2076 33.3162 12.2545 33.1392 12.027 32.8069C11.8644 32.5757 11.6874 32.4312 11.2648 32.4204C11.1818 31.7413 11.1384 31.456 10.3835 31.4199C9.73695 31.391 9.67916 31.1345 8.92064 31.1201C9.1193 30.6577 10.3004 30.6686 9.93922 29.5416C10.1993 29.3719 10.463 29.3646 10.6038 29.054C10.7664 28.6964 10.5533 28.4364 10.5605 28.0968C10.5713 27.4358 10.8711 26.9302 10.0693 26.569C10.4124 25.1422 9.85615 25.6262 9.28184 25.0375C9.06151 24.8135 8.61723 24.2681 8.05015 24.4523C7.86232 24.5137 7.89122 24.5896 7.66366 24.6979L7.56253 24.521C7.68534 24.3765 7.56614 24.4668 7.7648 24.4054C8.55944 24.1561 8.07904 24.2284 8.96398 24.0839C9.53107 23.9936 9.83086 23.7769 9.84892 23.2026C11.1095 23.2134 10.658 22.8269 11.0481 22.0937C11.1673 21.8697 11.3624 21.635 11.4201 21.3135C11.4779 20.974 11.3587 20.6272 11.1673 20.555C11.7777 19.9518 11.673 19.6339 11.2323 19.1282C11.03 18.8971 11.0264 18.6623 10.8856 18.3733C10.6977 17.9941 10.5966 18.0627 10.3907 17.8243C10.9434 17.6618 12.0595 18.3011 12.3123 17.3006C13.6054 17.6582 13.255 17.1416 13.7752 16.6107C14.4398 15.9316 14.6168 16.0111 14.3784 15.1189C14.8479 14.978 15.1694 14.5518 14.9274 13.9811C14.5915 13.1865 14.9707 13.5838 14.5518 12.4713C15.4656 11.8573 16.3686 11.7056 17.6942 11.7056C18.9078 11.7056 20.1576 11.8717 21.3712 11.7309C22.379 11.6117 22.6535 11.4852 23.4012 10.9615C23.5818 10.8387 23.7118 10.6834 23.8852 10.575L23.4589 11.7814L22.6571 13.0709L24.3872 12.7458H27.1612L29.426 13.4357C29.426 13.4357 30.6215 12.8397 31.3692 12.5436C30.8383 12.3341 30.3001 12.1571 29.7655 12.0198C29.4187 11.9295 28.765 11.8428 28.6819 11.6983C28.6386 11.6297 28.3929 10.7953 28.3893 10.6942C28.4941 10.8893 29.4043 11.5286 29.7908 11.6875C31.2248 12.2907 33.9049 11.8573 35.5989 12.0487C36.2093 12.1173 36.1082 12.0632 36.3755 12.4641C36.9498 13.3129 38.3151 14.7685 39.0411 15.3573C39.1639 15.4584 39.2867 15.5054 39.3373 15.6788C39.4059 15.928 39.4132 16.3795 39.4962 16.7046C39.778 17.8099 40.3884 19.1752 40.9555 20.154C41.1108 20.4177 41.2553 20.6886 41.4178 20.9378C41.6634 21.3171 41.8079 21.2665 41.6418 21.7397C40.9013 23.8202 42.1041 28.0679 42.068 28.2196C42.0535 28.2738 41.7176 28.8806 41.6418 29.054C41.0602 30.3688 40.6087 32.6154 40.5798 34.1217C39.2109 34.8549 37.9792 36.7476 37.0473 38.2899ZM43.6717 12.2293C44.1124 12.8542 45.4705 14.8552 45.3441 15.8883C44.8312 15.863 43.9679 15.0864 43.6898 14.8155C41.8838 13.0528 42.9421 13.9161 41.3925 11.8067C41.2806 11.655 41.2264 11.543 41.1036 11.3913C40.7821 10.9904 40.3884 10.6473 40.3451 10.221C40.7532 10.2572 41.9307 10.7267 42.3569 10.8929C43.0035 11.1493 43.1516 11.4961 43.6717 12.2293ZM41.2444 12.0993C41.4323 12.3738 41.6382 12.6411 41.8115 12.9409C42.0246 13.3057 43.4116 15.5849 42.9565 15.8449C42.5556 16.0725 40.3053 13.8619 39.9008 13.2949C39.5793 12.8397 39.3048 12.3124 38.7883 11.6008C38.5643 11.2866 37.6433 10.3655 38.0442 9.67924C38.2718 9.63228 38.9906 9.79843 39.2253 9.91402C39.4168 10.0043 39.8358 10.4053 39.9839 10.5606C40.4137 11.0121 40.8688 11.543 41.2444 12.0993ZM39.3012 15.1984C38.8244 14.8119 37.8239 13.768 37.4229 13.3201C37.264 13.1431 36.7042 12.4605 36.6211 12.2654C37.1954 12.3593 37.7516 12.8722 38.0189 12.9048C37.9864 12.2907 36.7728 10.8134 36.2599 10.3727C35.5808 9.79121 35.4905 9.94291 35.5736 9.68285C35.5953 9.61422 35.6458 9.57088 35.7036 9.53837C35.8373 9.47335 35.989 9.4878 36.1515 9.53837C37.2351 9.87067 38.6871 11.897 39.2904 12.8542C39.554 13.2696 40.699 15.2056 40.5004 15.8449L40.3017 15.8485C40.0705 15.798 39.4493 15.3176 39.3012 15.1984ZM28.0354 9.61422C28.1762 9.50586 28.3424 9.37583 28.5013 9.24941C28.7325 9.0652 28.7903 9.10493 29.1406 9.06881C29.603 9.02185 30.1773 8.94961 30.6613 8.93878C32.4275 8.90266 34.4178 9.31443 35.7506 10.3836C36.231 10.7701 37.0581 11.5539 37.2785 12.1246C36.91 12.0559 36.5741 11.8789 36.0937 11.7923C35.6495 11.7164 35.1799 11.6767 34.7212 11.6695C33.233 11.6442 30.6577 11.9765 29.4476 11.1313C29.1117 10.8965 28.9058 10.7014 28.6241 10.4522C28.3351 10.1958 28.104 10.1235 28.0354 9.61422ZM15.5739 6.00583C15.7329 5.81078 16.7659 5.37012 17.0115 5.2726C19.8253 4.16371 22.7835 4.1312 24.7412 6.67405C24.7737 6.7174 24.9579 6.95218 24.976 6.99913C25.1421 7.36395 24.8604 7.32421 24.8604 7.32421C24.7593 7.3495 23.9719 7.31338 23.8057 7.30977C23.1917 7.29893 22.2959 7.4109 21.8516 7.15806C21.7902 7.30977 21.895 7.28087 21.2809 7.29171C21.2954 7.43619 21.5807 7.61317 21.7071 7.70709C21.9889 7.91658 23.0616 8.6751 23.1592 8.80875L22.8413 8.84487C23.5456 8.88099 23.7515 9.26386 24.2139 9.53837C24.1597 9.86345 24.1344 9.89596 23.9502 10.0621C23.5673 10.4089 23.235 10.7303 22.7799 10.9904C22.09 11.3805 21.3243 11.4419 20.3996 11.4563C19.4569 11.4672 18.5394 11.3841 17.5931 11.3841C16.2349 11.3841 16.2169 11.478 15.0791 11.7886C15.2489 11.2685 16.0146 10.5678 16.3614 10.2788C16.9032 9.83094 17.3836 9.54198 18.0554 9.27108C18.7056 9.01463 19.5146 8.82681 20.2984 8.75818C21.8588 8.62092 22.1839 8.84487 22.8521 8.81236C22.4837 8.61731 20.0817 8.56313 19.446 8.55229C16.3144 8.49811 12.93 9.01102 10.109 10.0838C10.2607 9.82011 11.2179 8.97851 11.5466 8.72206C12.2726 8.15136 13.6126 7.40368 14.5156 7.03164C15.592 6.59098 18.0012 5.94804 19.2618 6.18643C19.7783 6.28396 20.2479 6.51874 20.703 6.60904L20.5802 6.53319C20.5441 6.51513 20.4718 6.48984 20.4357 6.47539C18.8103 5.86858 17.3113 5.89747 15.5739 6.00583ZM20.703 6.60904C20.768 6.65599 21.7035 7.12917 21.8047 7.15806C21.671 7.01358 20.9739 6.64516 20.703 6.60904ZM36.65 9.41195C36.91 9.44807 37.3363 9.49503 37.7047 9.57449L37.6686 10.2608L36.65 9.41195ZM35.2196 9.63589C34.9379 9.51309 34.5767 9.32887 34.2841 9.16995L35.5375 9.26747L35.2196 9.63589ZM10.7086 10.2861C10.8675 10.1055 11.2179 10.0441 11.5249 9.95014L14.1003 9.32165C15.2272 9.11215 16.802 8.87737 17.9759 8.89905C17.8712 9.00741 17.1957 9.29998 16.8165 9.53837C15.6931 10.2463 15.0321 11.0662 14.3892 12.3124C14.2086 12.2474 14.0316 12.1896 13.7824 12.2149C13.8582 11.8392 14.0172 11.4636 13.7354 11.1168C13.479 10.8062 13.2009 10.8965 12.8541 10.6942C12.594 10.5425 12.3845 10.2969 11.9692 10.2427C11.4129 10.1632 11.3912 10.4594 11.1348 10.6545C10.9867 10.4594 10.947 10.398 10.7086 10.2861ZM25.1566 7.64207C25.4311 7.29171 25.9115 5.07394 26.1788 4.8211L27.0637 7.66735L30.04 7.69264C30.0003 7.82628 29.603 8.05384 29.4874 8.13691C29.2562 8.30668 29.0828 8.42226 28.8733 8.57397L27.6344 9.45529L28.5302 12.363L26.1065 10.6003L23.6721 12.3485C23.7407 11.8139 24.5606 9.89596 24.5787 9.39389C24.2428 9.25302 22.4945 7.81545 22.1767 7.61679L25.1566 7.64207ZM27.3238 7.34227C27.2985 7.10388 27.8945 6.45011 28.0245 6.32008C30.1267 4.2504 33.3378 4.5213 35.812 5.76744L36.9028 6.33452C36.408 6.35258 35.7217 6.24061 35.1727 6.23339C33.5762 6.21172 32.3336 6.46456 30.9358 7.13278L30.6577 7.30615C30.878 7.24475 31.1525 7.08221 31.3837 6.97746C32.0952 6.65599 33.0994 6.37787 33.894 6.43566C36.6716 6.6271 39.2037 7.71792 41.2661 9.47697C41.5948 9.75509 42.0499 10.1741 42.2919 10.51C41.7971 10.3547 41.3203 10.1669 40.8291 10.0115C36.6247 8.68233 33.2583 8.69677 28.8878 9.02908C28.9672 8.89182 28.9456 8.90266 29.1731 8.76901L31.0478 7.38201L27.3238 7.34227ZM26.2908 4.13482C26.8145 4.02284 27.4105 4.56103 27.6525 5.16062C28.0028 6.04195 27.7572 6.17199 27.4466 6.49345L27.2371 6.73907C27.1829 6.80047 27.2118 6.77519 27.1432 6.81853L26.2908 4.13482ZM25.1566 6.64877C24.929 6.44289 24.7846 6.17921 24.5859 5.97332C24.4739 5.85774 24.3872 5.8144 24.4306 5.59768C24.5642 4.90056 25.171 4.12759 26.0126 4.0987L25.1566 6.64877ZM26.2221 3.76278C26.8289 3.45215 27.6814 3.31128 28.4218 3.5894C28.9636 3.79168 29.6644 4.35154 29.8269 4.82832C29.0792 5.02337 28.2232 5.73493 28.1112 5.7855C27.9848 5.48209 28.0462 4.96558 27.5369 4.37682C27.0782 3.84947 26.4966 3.8892 26.2221 3.76278ZM22.5054 4.60438C22.6751 4.21067 23.4264 3.61469 24.0007 3.45215C24.6943 3.25349 25.5611 3.43409 26.0921 3.75556C25.7056 3.93616 25.0446 3.71944 24.38 4.87889C24.2536 5.10283 24.2536 5.2148 24.1813 5.38096C24.1344 5.48932 24.2391 5.26898 24.1452 5.44958C24.1416 5.45681 24.1272 5.49293 24.1272 5.4857C24.1236 5.47487 24.1127 5.50738 24.1055 5.51821C23.6865 5.29788 23.5204 4.96196 22.5054 4.60438ZM22.1839 4.47796C21.2629 4.32986 20.9486 4.19261 19.8939 4.24318C18.1782 4.32264 16.5853 5.01614 15.1261 5.83968C14.8877 5.97333 14.4615 6.12142 14.4073 6.39232C14.6529 6.53319 15.0574 6.36342 15.3717 6.38509C14.9021 6.46095 13.5765 7.0786 13.1756 7.29532C11.673 8.09357 10.2137 9.11215 9.32157 10.5064C9.13375 10.8062 9.1807 10.687 8.87368 10.8495C8.37162 11.1168 8.38968 11.2577 8.38245 11.8537C7.32052 11.9367 7.7359 12.5327 7.43972 13.1793C6.92681 14.2918 7.23384 14.2918 7.63838 14.7216C7.44333 15.1912 7.37832 15.4512 7.76119 15.7907C7.92734 15.9424 7.98513 15.9497 8.11155 16.1917C8.2163 16.3831 8.32466 16.5601 8.38606 16.7226C8.03209 16.654 7.80814 16.4734 7.36387 16.5709C6.93404 16.6648 6.93404 16.8527 6.7715 17.2066C6.53672 17.0549 6.19358 16.8527 5.80709 17.0008C5.51813 17.1163 5.42061 17.4559 5.20028 17.6473C4.71627 18.0663 4.02277 18.4094 4.50316 19.1463C3.48819 19.717 4.0336 19.8073 3.97942 20.6272C3.95414 20.992 3.853 21.2413 3.98665 21.6169C4.13474 22.0359 4.31173 21.9564 4.61875 22.1298C4.52845 22.957 4.69099 22.8703 5.27974 23.2315C5.52897 23.3832 5.57231 23.5277 5.76736 23.6938C5.96602 23.8672 6.13579 23.8852 6.35612 24.0333C5.77097 24.4993 4.60791 23.9177 4.70905 25.2759C3.27147 25.2686 3.83133 25.666 3.42317 26.3884C3.08365 26.988 2.74051 27.4972 3.40511 27.9993C2.67549 28.6964 3.34371 29.0143 3.52792 29.5489C3.78799 30.311 3.78799 30.7119 4.74155 30.665C4.83908 31.5716 5.60482 31.2646 6.18997 31.5318C6.27304 31.5716 6.38501 31.6221 6.48615 31.6474C6.54033 31.6619 6.60174 31.6691 6.64508 31.6836L6.7426 31.7269C6.74621 31.7305 6.76066 31.7377 6.76789 31.745C6.2586 32.312 5.32309 32.3337 5.84321 33.3993C5.73124 33.4968 5.59399 33.5076 5.45673 33.5762C5.30864 33.6485 5.21111 33.7316 5.13526 33.8616C4.91132 34.2408 5.12443 34.454 5.13526 34.8513C5.1461 35.2486 4.99439 35.4509 5.13165 35.8951C5.25807 36.3214 5.40616 36.2925 5.77097 36.4514C5.54703 37.6542 6.11411 37.3183 6.57284 37.8637C6.78234 38.1093 6.85096 38.2538 7.15437 38.4272C7.5553 38.6583 7.73229 38.4886 8.03209 38.3477C8.76532 39.0882 8.65696 38.7522 9.41187 38.5789C9.60692 38.5355 9.88143 38.55 10.1054 38.5464L9.932 38.7595C9.1482 39.6083 9.59608 40.1898 9.82364 40.8616C8.78338 41.1723 10.2643 42.2667 10.6544 42.5412C9.91755 42.9458 11.0734 43.5526 11.4274 43.7187C11.8319 43.903 12.7746 44.3147 13.2153 44.4014C13.1069 44.8204 13.0781 44.8746 13.4573 45.0985C13.8221 45.3116 14.2447 45.373 14.5445 45.6656C14.7974 45.9221 15.22 46.1749 15.5523 46.2977C15.4836 47.0309 16.1627 47.1574 16.7334 47.3235C17.3258 47.4969 17.9506 47.5583 18.5466 47.7136C18.8031 47.9051 18.4419 48.2012 19.9589 48.6058C21.2845 48.9598 22.7871 49.0428 24.1308 48.7936C24.6401 48.7033 25.2902 49.3462 25.8176 49.4257C26.3197 49.4979 26.977 48.8117 27.5188 48.9092C28.2485 49.0392 31.8713 48.6311 32.7093 48.3638C33.1211 48.2337 33.1247 48.129 33.2077 47.7895C33.2077 47.7822 33.2114 47.7678 33.2186 47.757C34.1794 47.5547 35.2016 47.5005 36.0829 47.0779C36.4766 46.8865 36.5019 46.807 36.3791 46.3772C36.668 46.2724 37.0437 46.0774 37.3074 45.9004C37.7155 45.6259 37.8058 45.5284 37.5891 45.0732C37.8094 44.936 38.633 44.7084 38.9725 44.5639C39.4312 44.3617 39.8213 44.1377 40.2114 43.8957C40.9952 43.4081 41.8007 42.7507 42.3894 42.2161C43.8523 40.8797 45.5066 38.7197 46.3265 36.5923C46.4855 36.1805 46.5902 35.4436 46.7889 35.1511C47.6883 33.811 48.9886 30.1087 48.5587 28.4255C48.4359 27.9524 48.454 28.0788 48.5443 27.5912C48.8585 25.9152 48.9163 23.0725 48.2589 21.5591C48.1145 21.2196 48.0603 21.2882 48.0133 20.8512C47.8327 19.1535 46.8756 15.798 45.5825 14.6746C45.3116 14.4362 45.3224 14.4796 45.1454 14.1112C44.4194 12.605 42.7723 10.2752 41.4648 9.17717C40.1934 8.11524 38.7124 7.3495 37.134 6.74268C37.4302 6.67044 37.748 6.91967 38.0009 6.73907C37.9467 6.47901 37.5132 6.3273 37.2893 6.19366C37.0184 6.03473 36.7692 5.88302 36.4622 5.72048C34.9198 4.90417 33.0416 4.29013 31.2464 4.49602C30.9069 4.53575 30.3687 4.68384 30.1375 4.68745C29.6608 4.14926 29.3429 3.65803 28.6169 3.35101C28.2521 3.1957 27.815 3.11262 27.3563 3.14152C26.9806 3.16319 26.3088 3.41242 26.1607 3.4088C25.5792 3.38713 25.0338 2.78754 23.8057 3.1957C22.9749 3.47021 22.6137 3.99395 22.1839 4.47796Z" fill="white"/>
<path id="Vector_2" fill-rule="evenodd" clip-rule="evenodd" d="M26.7277 28.5918C26.5038 28.9349 26.2329 28.7471 25.9006 28.6929C25.5358 28.6315 25.2179 28.823 25.0842 28.4545C24.8928 27.9344 25.2829 27.1398 25.4924 26.84C26.0559 27.1145 25.8717 27.1434 26.1606 27.6888C26.464 28.2703 26.706 28.3317 26.7277 28.5918ZM27.2478 27.1542C27.6921 27.2662 27.9883 27.1939 28.3892 27.259C28.5012 27.6238 28.2411 27.7827 28.0461 27.9272C27.7716 28.1258 27.7788 28.2523 27.5729 28.4907C26.9228 28.5521 26.381 27.7285 26.269 27.1398C26.7602 26.9194 26.7927 27.0386 27.2478 27.1542ZM27.0094 26.7388C27.2912 26.0381 27.0347 26.2295 27.6163 25.7961C27.8041 25.6552 27.8799 25.5866 28.0172 25.3952C28.1797 25.1712 28.187 25.1423 28.5734 25.1821C28.7649 25.4385 28.7179 25.5469 28.736 25.9334C28.7504 26.2295 28.8985 26.3343 28.8624 26.6377C28.5807 27.0639 27.4646 27.0422 27.0094 26.7388ZM24.7158 28.0861C24.3257 28.0969 24.2643 27.8441 24.1235 27.5226C24.0006 27.2337 23.6683 27.0639 23.7297 26.8183C23.8237 26.4463 24.705 26.0056 25.2251 26.067C25.2865 27.035 25.4491 26.2295 25.0301 27.0567C24.8242 27.4576 24.8459 27.7538 24.7158 28.0861ZM26.0776 25.4855C26.9408 25.2724 27.1973 26.6016 26.399 26.7894C25.9475 26.8942 25.608 26.6305 25.5502 26.2837C25.4671 25.7961 25.7127 25.5758 26.0776 25.4855ZM25.5646 25.3265C25.5249 25.4385 25.4599 25.5433 25.3913 25.6227C25.1709 25.8864 25.0517 25.6625 24.3582 25.9478C24.1885 26.0164 23.8742 26.2404 23.755 26.2295C23.4841 26.2115 23.5347 25.8431 23.6431 25.6263C24.044 24.81 23.8092 24.5464 24.4269 24.6728C24.9434 24.7811 25.2432 25.1026 25.5646 25.3265ZM25.9078 25.211C25.7994 25.164 25.5863 24.9365 25.4527 24.8389C24.8097 24.3621 24.3691 24.4886 24.5786 24.0696C24.6616 23.9034 24.8964 23.8565 25.124 23.8023C25.6297 23.6831 25.8319 23.2171 26.1967 23.7914C26.4243 24.1454 26.511 24.6872 26.4532 25.1676L25.9078 25.211ZM26.7963 23.6217C27.0636 23.5025 27.3779 23.8023 27.4935 23.8998C27.7607 24.1201 27.9305 24.0407 28.14 24.2502C28.2809 24.8787 27.4609 25.5758 27.1214 25.7708C27.0167 25.5649 26.93 25.4421 26.753 25.3482C26.753 24.969 26.7891 24.7017 26.7097 24.3296C26.6519 24.066 26.5182 23.7481 26.7963 23.6217ZM28.3856 24.857C28.4326 24.5536 28.5265 24.2393 28.3387 24.0046C28.1797 23.8095 27.9269 23.8348 27.703 23.6939C27.5151 23.5747 27.3706 23.3797 27.0781 23.3111C26.7205 23.228 26.5724 23.4302 26.3882 23.5314C26.2582 23.3977 26.1209 23.1846 25.8067 23.1882C25.5177 23.1919 25.4093 23.3833 25.1854 23.47C24.6869 23.6578 24.2101 23.647 24.2535 24.3441C23.4588 24.4019 23.7334 24.7703 23.5022 25.2832C23.3108 25.695 23.0037 26.1212 23.5311 26.4535C23.4805 26.6883 23.3505 26.905 23.4841 27.1614C23.5889 27.3709 23.7442 27.4071 23.8526 27.6418C24.0512 28.0753 24.1271 28.4256 24.7556 28.3895C24.9145 29.1336 25.2143 28.9096 25.8067 28.9819C26.2979 29.0397 26.7855 29.2745 26.9806 28.7146C27.2262 28.7543 27.4573 28.888 27.703 28.7327C27.9052 28.6062 27.9377 28.4148 28.1111 28.2414C28.4868 27.8586 28.7974 27.8983 28.689 27.1217C28.866 27.0639 29.1152 26.8942 29.1694 26.6774C29.2381 26.3849 29.0683 26.2223 29.0466 25.9406C28.9997 25.3482 29.0141 24.9039 28.3856 24.857Z" fill="white"/>
<path id="Vector_3" d="M26.1355 0.988818C33.0416 1.05383 39.2795 3.91093 43.7837 8.48011C48.2842 13.0493 51.051 19.327 51.0149 26.2331V26.2367V26.3378C50.9499 33.2043 48.1217 39.3916 43.5923 43.8524C39.0664 48.3133 32.8357 51.0475 25.9693 51.0114H25.8646C18.9584 50.9464 12.7205 48.0893 8.21632 43.5201C3.71576 38.951 0.948971 32.6733 0.985091 25.7671V25.7635V25.6624C1.05011 18.796 3.8783 12.6086 8.40775 8.1478C12.9336 3.68698 19.1643 0.952698 26.0307 0.988818H26.1355ZM43.4839 8.77268C39.0556 4.27935 32.9224 1.4656 26.1282 1.4042L26.0271 1.40059C19.2763 1.36447 13.1503 4.05541 8.70032 8.44038C4.24673 12.829 1.4691 18.9116 1.40408 25.6624V25.7671C1.36796 32.5577 4.0878 38.7342 8.51611 43.2276C12.9444 47.7209 19.0776 50.5346 25.8718 50.596L25.9729 50.5997C32.7237 50.6358 38.8497 47.9448 43.2997 43.5599C47.7533 39.1713 50.5309 33.0887 50.5959 26.3378V26.2331C50.632 19.4425 47.9122 13.266 43.4839 8.77268Z" fill="white"/>
<path id="Vector_4" fill-rule="evenodd" clip-rule="evenodd" d="M26.0777 11.3516C34.1108 11.4275 40.5835 18.0194 40.5438 26.0742C40.5005 34.1289 33.9555 40.598 25.9224 40.5222C17.8893 40.4463 11.4166 33.8544 11.4564 25.7997C11.4997 17.7413 18.0446 11.2722 26.0777 11.3516ZM13.6922 26.6954L13.8042 27.2553C13.685 27.2806 13.5983 27.3167 13.5405 27.36C13.4466 27.4323 13.4068 27.5262 13.4213 27.6382C13.4321 27.7248 13.4646 27.7863 13.5188 27.826C13.5766 27.8657 13.638 27.8838 13.7066 27.8729C13.7717 27.8657 13.8258 27.8404 13.8728 27.7899C13.9161 27.7393 13.9559 27.6345 13.9811 27.4684C14.0245 27.2011 14.104 27.0024 14.2159 26.8796C14.3279 26.7532 14.4832 26.6774 14.6783 26.6557C14.8047 26.6412 14.9275 26.6557 15.0503 26.7027C15.1695 26.746 15.267 26.8218 15.3465 26.9302C15.4259 27.035 15.4765 27.1903 15.4982 27.3889C15.5271 27.6345 15.491 27.8296 15.3862 27.9705C15.2851 28.1113 15.1045 28.2125 14.8516 28.263L14.7433 27.7104C14.8516 27.6815 14.9311 27.6418 14.9781 27.5876C15.0214 27.537 15.0395 27.4684 15.0286 27.3853C15.0214 27.3131 14.9961 27.2661 14.9528 27.2336C14.913 27.2047 14.8661 27.1903 14.8119 27.1975C14.7722 27.2011 14.7361 27.2192 14.7072 27.2517C14.6783 27.2842 14.6566 27.3528 14.6421 27.4612C14.5988 27.7285 14.5482 27.9235 14.4868 28.0427C14.4254 28.1655 14.3423 28.2558 14.2412 28.3208C14.1365 28.3822 14.0173 28.422 13.88 28.44C13.7211 28.4581 13.5694 28.44 13.4285 28.3858C13.2876 28.3353 13.1721 28.2486 13.089 28.1366C13.0059 28.021 12.9517 27.8729 12.9301 27.6851C12.8939 27.36 12.9481 27.1253 13.0962 26.9808C13.2443 26.8363 13.443 26.7424 13.6922 26.6954ZM16.1375 29.9896L16.347 30.5458L14.9528 31.0696C14.8155 31.1201 14.6783 31.1526 14.541 31.1671C14.4074 31.1779 14.2773 31.1671 14.1617 31.131C14.0425 31.0948 13.9486 31.0443 13.8836 30.9793C13.7897 30.889 13.7139 30.7698 13.6561 30.6181C13.6236 30.5278 13.5947 30.4302 13.573 30.3183C13.5477 30.2099 13.5477 30.1124 13.5694 30.0221C13.5911 29.9354 13.6344 29.8451 13.6994 29.7548C13.7644 29.6645 13.8403 29.5923 13.9234 29.5345C14.0606 29.4442 14.1834 29.3791 14.299 29.3358L15.6932 28.8121L15.9027 29.3719L14.476 29.9065C14.3496 29.9535 14.2593 30.0185 14.2087 30.1015C14.1581 30.181 14.1509 30.2713 14.187 30.3688C14.2231 30.4627 14.2846 30.5278 14.3785 30.5567C14.4688 30.5819 14.5807 30.5711 14.7108 30.5241L16.1375 29.9896ZM16.654 31.196L17.0983 31.8425L16.0219 32.9586L17.4414 32.341L17.8857 32.9875L15.8305 34.4071L15.5524 34.0061L17.1236 32.9225L15.3393 33.6919L15.09 33.3307L16.4445 31.9364L14.8769 33.02L14.5988 32.6155L16.654 31.196ZM17.8532 35.841L17.3511 35.3823L17.0044 35.6243L16.5565 35.2125L18.7743 33.8544L19.2547 34.2951L18.1061 36.6357L17.6437 36.2131L17.8532 35.841ZM18.1241 35.357L18.572 34.5479L17.8099 35.0717L18.1241 35.357ZM20.1938 34.9597L21.7578 35.8844L21.4435 36.4153L20.9198 36.1083L19.9698 37.7337L19.4569 37.4303L20.4069 35.8049L19.8832 35.4943L20.1938 34.9597ZM22.3176 36.0758L23.8383 36.5598L23.6794 37.0691L22.7258 36.7693L22.6102 37.1486L23.4915 37.4267L23.3398 37.9179L22.4585 37.6362L22.3104 38.1057L23.2929 38.4164L23.1231 38.9582L21.5736 38.4706L22.3176 36.0758ZM24.3404 39.1568L24.5715 36.6609L25.5612 36.7549C25.7418 36.7729 25.8827 36.809 25.973 36.8596C26.0669 36.9102 26.1391 36.9932 26.1861 37.1088C26.2367 37.2244 26.2547 37.3617 26.2403 37.5206C26.2258 37.6615 26.1933 37.777 26.1391 37.8746C26.0813 37.9685 26.0127 38.0443 25.9296 38.0985C25.8718 38.1346 25.7996 38.1599 25.7093 38.178C25.7779 38.2141 25.8285 38.2502 25.8574 38.2863C25.8755 38.308 25.9044 38.355 25.9405 38.4236C25.973 38.4958 25.9983 38.55 26.0091 38.5897L26.2258 39.341L25.5576 39.276L25.312 38.4814C25.2795 38.3803 25.2506 38.3116 25.2217 38.2791C25.182 38.2358 25.135 38.2105 25.0808 38.2069L25.0303 38.1997L24.9363 39.2146L24.3404 39.1568ZM25.0736 37.7301L25.3228 37.7518C25.3517 37.7554 25.4023 37.7518 25.4854 37.7337C25.5251 37.7301 25.5576 37.7048 25.5865 37.6651C25.6154 37.6253 25.6335 37.5784 25.6371 37.5242C25.6443 37.4447 25.6298 37.3797 25.5973 37.3328C25.5612 37.2858 25.489 37.2569 25.3806 37.2461L25.1206 37.2208L25.0736 37.7301ZM28.4111 38.6331L27.7429 38.7451L27.7212 39.1677L27.1216 39.2688L27.4142 36.6754L28.0535 36.5706L29.1877 38.9257L28.5736 39.0268L28.4111 38.6331ZM28.198 38.1202L27.8368 37.2641L27.779 38.1888L28.198 38.1202ZM31.7486 35.1547L32.2651 34.8586L33.0056 36.1625C33.0778 36.2925 33.132 36.4225 33.1645 36.5526C33.2006 36.6862 33.2078 36.8126 33.1898 36.9391C33.1753 37.0619 33.1392 37.1594 33.0886 37.2352C33.0128 37.34 32.908 37.4339 32.7672 37.5134C32.6841 37.5603 32.5938 37.6037 32.489 37.6434C32.3843 37.6831 32.2868 37.6976 32.1965 37.6904C32.1062 37.6831 32.0123 37.6542 31.9111 37.6037C31.81 37.5531 31.7269 37.4881 31.6583 37.4158C31.5463 37.293 31.4632 37.1811 31.4018 37.0727L30.6614 35.7724L31.1779 35.4762L31.9364 36.8126C32.0014 36.9318 32.0809 37.0077 32.1676 37.0474C32.2579 37.0872 32.3482 37.0799 32.4385 37.0294C32.5252 36.9788 32.5757 36.9066 32.5902 36.809C32.6046 36.7151 32.5757 36.6068 32.5071 36.4876L31.7486 35.1547ZM32.7021 34.5335L34.0097 33.2837L34.4359 33.7352L33.9952 34.1542L35.2956 35.5232L34.8657 35.9349L33.5654 34.5624L33.1284 34.9814L32.7021 34.5335ZM36.8126 33.0273L36.4514 33.6016L36.7512 33.9014L36.4261 34.4143L34.6996 32.453L35.0463 31.9075L37.5458 32.6444L37.2135 33.1681L36.8126 33.0273ZM36.2889 32.8394L35.4148 32.536L36.0613 33.2006L36.2889 32.8394ZM38.066 31.6475L35.7398 30.7264L36.0974 29.8018C36.1661 29.632 36.2347 29.5056 36.3105 29.4333C36.3828 29.3575 36.4803 29.3105 36.6067 29.2961C36.7331 29.2816 36.8668 29.3033 37.0149 29.3611C37.1449 29.4117 37.2497 29.4803 37.3255 29.5597C37.405 29.6392 37.4555 29.7259 37.4844 29.8234C37.5061 29.8848 37.5097 29.9643 37.5025 30.0546C37.5567 30.0004 37.6036 29.9643 37.6434 29.9426C37.6723 29.9318 37.7228 29.9173 37.8023 29.9029C37.8781 29.8884 37.9359 29.8812 37.9757 29.8848L38.7559 29.8812L38.5102 30.5097L37.6831 30.5241C37.5783 30.5241 37.5061 30.535 37.4664 30.553C37.4158 30.5783 37.3797 30.6181 37.358 30.6686L37.34 30.7156L38.2863 31.0912L38.066 31.6475ZM36.8993 30.5422L36.9896 30.3074C37.0004 30.2858 37.0076 30.2316 37.0149 30.1485C37.0221 30.1088 37.0076 30.069 36.9788 30.0293C36.9462 29.9932 36.9065 29.9643 36.8559 29.9426C36.7801 29.9137 36.7151 29.9101 36.6609 29.9282C36.6067 29.9498 36.5598 30.0112 36.52 30.1124L36.4261 30.3544L36.8993 30.5422ZM38.7667 27.584L38.68 28.2558L39.0773 28.4039L39.0015 29.0071L36.6139 27.9596L36.6934 27.3167L39.2651 26.923L39.1893 27.5442L38.7667 27.584ZM38.2141 27.6345L37.2966 27.7285L38.1599 28.0572L38.2141 27.6345ZM14.783 19.1463L15.0395 18.7093L16.0942 19.3342C16.1989 19.3956 16.2892 19.4678 16.3687 19.5473C16.4445 19.6267 16.5023 19.717 16.5384 19.8146C16.5782 19.9121 16.5926 19.9988 16.5854 20.0782C16.5746 20.1866 16.5348 20.2986 16.4626 20.4178C16.4229 20.4864 16.3759 20.5586 16.3145 20.6345C16.2531 20.7067 16.1917 20.7609 16.1231 20.7934C16.0544 20.8295 15.975 20.8476 15.8811 20.8548C15.7908 20.862 15.7041 20.8512 15.6246 20.8295C15.4946 20.7898 15.3862 20.7428 15.2995 20.6923L14.2448 20.0674L14.5013 19.6304L15.5813 20.2697C15.6788 20.3275 15.7655 20.3491 15.8449 20.3383C15.9244 20.3275 15.9858 20.2841 16.0292 20.2083C16.0761 20.1324 16.0833 20.0566 16.0544 19.9843C16.0255 19.9085 15.9605 19.8435 15.863 19.7857L14.783 19.1463ZM16.0075 17.4379L16.3362 17.0983L17.5823 17.4559L16.7696 16.6577L17.1019 16.3145L18.572 17.7593L18.2361 18.0989L17.0008 17.7485L17.8063 18.5395L17.474 18.8791L16.0075 17.4379ZM18.3011 15.3321L18.7237 15.0503L19.8615 16.766L19.4389 17.0478L18.3011 15.3321ZM19.847 14.3279L20.3347 14.1148L21.2666 15.3248L21.0065 13.8223L21.476 13.6164L21.7433 15.7475L21.2413 15.9678L19.847 14.3279ZM22.7475 13.2443L24.0731 12.9518L24.1706 13.3816L23.3398 13.5622L23.4121 13.8837L24.1814 13.7139L24.2717 14.1221L23.5024 14.2918L23.5927 14.6891L24.4451 14.5013L24.5499 14.9564L23.199 15.2526L22.7475 13.2443ZM25.5865 14.9131L25.5973 12.8542L26.4425 12.8615C26.5979 12.8651 26.7171 12.8831 26.8001 12.9156C26.8832 12.9518 26.9482 13.0132 26.9988 13.1071C27.0494 13.1974 27.0746 13.3094 27.0746 13.4394C27.0746 13.555 27.053 13.6525 27.0132 13.7356C26.9735 13.8186 26.9229 13.8837 26.8543 13.9342C26.811 13.9667 26.7496 13.992 26.6737 14.0137C26.7351 14.039 26.7785 14.0643 26.8074 14.0895C26.8254 14.1076 26.8507 14.1437 26.8868 14.2015C26.9229 14.2557 26.9446 14.299 26.9591 14.3279L27.2011 14.9275L26.6268 14.9203L26.3595 14.2918C26.327 14.2087 26.2945 14.1546 26.2692 14.1293C26.2331 14.1004 26.1897 14.0823 26.1428 14.0823H26.0994L26.0958 14.9167L25.5865 14.9131ZM26.103 13.6922L26.3161 13.6958C26.3378 13.6958 26.3848 13.685 26.4498 13.6669C26.4823 13.6597 26.5112 13.638 26.5328 13.6055C26.5545 13.5694 26.5654 13.5297 26.5654 13.4863C26.5654 13.4177 26.5473 13.3671 26.5148 13.331C26.4823 13.2949 26.4173 13.2768 26.327 13.2768L26.103 13.2732V13.6922ZM28.1799 14.4291L28.6603 14.4977C28.6495 14.5988 28.6531 14.6747 28.6748 14.7325C28.7073 14.8264 28.7723 14.8806 28.8662 14.9022C28.9348 14.9167 28.9962 14.9095 29.0432 14.877C29.0901 14.8445 29.119 14.8011 29.1299 14.7433C29.1407 14.6927 29.1335 14.6422 29.1082 14.5916C29.0793 14.5447 29.0035 14.4869 28.877 14.4182C28.6748 14.3099 28.5375 14.1943 28.4653 14.0715C28.3966 13.9523 28.3786 13.8114 28.4111 13.6525C28.4328 13.5514 28.4797 13.4574 28.5483 13.378C28.6134 13.2949 28.7037 13.2407 28.8084 13.2082C28.9168 13.1793 29.054 13.1793 29.2202 13.2191C29.4261 13.2624 29.5705 13.3455 29.6572 13.4647C29.7439 13.5839 29.7764 13.75 29.7511 13.9631L29.278 13.8945C29.2852 13.8006 29.2707 13.7283 29.2418 13.6778C29.2093 13.6308 29.1588 13.5983 29.0901 13.5803C29.0323 13.5694 28.9854 13.573 28.9493 13.5983C28.9132 13.62 28.8915 13.6561 28.8806 13.6994C28.8734 13.732 28.8806 13.7645 28.8987 13.7934C28.9168 13.8259 28.9673 13.862 29.0504 13.9053C29.2527 14.0101 29.3935 14.104 29.4766 14.1871C29.5561 14.2665 29.6103 14.3568 29.6319 14.4544C29.6536 14.5519 29.6536 14.6566 29.6319 14.765C29.603 14.895 29.5489 15.007 29.4694 15.1045C29.3863 15.1984 29.2888 15.2634 29.1768 15.296C29.0612 15.3321 28.9276 15.3285 28.7723 15.296C28.4978 15.2345 28.3244 15.1262 28.2485 14.9709C28.1727 14.8156 28.1474 14.6386 28.1799 14.4291ZM31.2754 13.9956L31.7377 14.2087L30.8925 16.0798L30.4302 15.8666L31.2754 13.9956ZM32.9767 14.8806L34.2372 15.7763L33.9411 16.1917L33.5221 15.8883L32.6263 17.1489L32.2145 16.8563L33.1067 15.5957L32.6841 15.2923L32.9767 14.8806ZM34.7285 18.6551L34.3492 18.2144L34.0422 18.377L33.7027 17.9797L35.6604 17.1164L36.0216 17.5354L34.8693 19.345L34.5226 18.9368L34.7285 18.6551ZM34.9958 18.2867L35.4364 17.669L34.7574 18.0122L34.9958 18.2867ZM35.906 19.7098L36.1769 20.1144C36.0974 20.1722 36.0432 20.2263 36.0143 20.2805C35.9674 20.3672 35.9674 20.4539 36.018 20.537C36.0541 20.5984 36.0974 20.6381 36.1552 20.6525C36.213 20.6634 36.2636 20.6562 36.3105 20.6309C36.3575 20.6056 36.39 20.5659 36.4081 20.5117C36.4261 20.4575 36.4189 20.3636 36.3828 20.2263C36.3286 19.9988 36.3214 19.8218 36.3647 19.6881C36.4081 19.5545 36.4984 19.4461 36.6356 19.3667C36.7295 19.3161 36.827 19.2872 36.9318 19.2836C37.0402 19.28 37.1377 19.3089 37.2352 19.3667C37.3291 19.4281 37.4194 19.5292 37.5025 19.6809C37.6072 19.8615 37.6434 20.0277 37.6145 20.1722C37.5856 20.313 37.4808 20.4467 37.3074 20.5731L37.0402 20.1722C37.116 20.1144 37.1594 20.0602 37.1774 20.0024C37.1919 19.9446 37.181 19.8868 37.1485 19.8254C37.116 19.7712 37.0835 19.7423 37.0402 19.7315C36.9968 19.7207 36.9571 19.7279 36.9173 19.7495C36.8921 19.764 36.8704 19.7893 36.8596 19.8254C36.8487 19.8579 36.8559 19.9193 36.8812 20.0096C36.939 20.2336 36.9643 20.3997 36.9571 20.5153C36.9535 20.6273 36.921 20.7284 36.8632 20.8115C36.8054 20.8909 36.7295 20.9632 36.632 21.0174C36.52 21.0824 36.3972 21.1149 36.2744 21.1185C36.148 21.1257 36.036 21.0932 35.9313 21.0318C35.8301 20.9704 35.7398 20.8693 35.664 20.7284C35.5231 20.4864 35.487 20.2841 35.552 20.1252C35.6134 19.9627 35.7326 19.8254 35.906 19.7098ZM26.0561 16.4012C31.3043 16.4518 35.534 20.7573 35.5087 26.02C35.4798 31.2827 31.2032 35.5087 25.9549 35.4581C20.7103 35.4112 16.477 31.1021 16.5059 25.8394C16.5348 20.5767 20.8114 16.3507 26.0561 16.4012Z" fill="white"/>
<path id="Vector_5" d="M27.0602 18.2288L27.0529 18.2252C26.7242 18.1277 26.0813 17.9326 25.702 18.1458C25.5973 18.2072 25.5251 18.2722 25.4853 18.3336C25.46 18.3805 25.4492 18.4275 25.4492 18.4781C25.4528 18.5322 25.4745 18.5973 25.5142 18.6623C25.5901 18.7995 25.7237 18.9259 25.8863 19.0271C26.0307 19.1174 26.1897 19.1932 26.345 19.2655C26.9301 19.5436 27.4611 19.7892 27.3816 20.5766C27.3744 20.6778 27.3527 20.7717 27.3238 20.8584C27.2191 21.1545 27.0024 21.3966 26.6845 21.5483C26.3992 21.6855 26.0307 21.7469 25.5901 21.7C25.3119 21.6711 25.0085 21.6024 24.6798 21.4869L24.9002 20.8475C25.1819 20.9487 25.4348 21.0065 25.6551 21.0281C25.9657 21.0606 26.2149 21.0245 26.3955 20.9378C26.54 20.8692 26.6412 20.7608 26.6845 20.6344C26.699 20.5911 26.7098 20.5477 26.7134 20.508C26.7423 20.1974 26.4208 20.0457 26.0632 19.8759C25.8863 19.7928 25.7057 19.7097 25.5323 19.6014C25.2758 19.4425 25.0627 19.2294 24.9291 18.9982C24.8388 18.8465 24.7846 18.6767 24.7774 18.507C24.7665 18.3264 24.8099 18.1458 24.9146 17.976C25.0121 17.8207 25.1566 17.6798 25.3661 17.5606C25.991 17.1994 26.8218 17.4522 27.2444 17.5787L27.2516 17.5823L27.0602 18.2288ZM20.2082 26.6737L20.945 29.1876C21.0137 29.4947 21.0101 29.7186 20.9631 29.8811C20.9234 30.004 20.8547 30.0834 20.7717 30.1304C20.6705 30.1846 20.5369 30.2026 20.396 30.1918C20.154 30.1773 19.8976 30.0834 19.6989 29.9462C19.5616 29.8523 19.4497 29.7042 19.3558 29.538C19.251 29.3502 19.1679 29.1371 19.0993 28.9384C18.8537 28.2449 18.5756 27.3058 18.4202 26.7784C18.3913 26.6881 18.3697 26.6195 18.3552 26.5689L17.6473 26.5726L17.6762 26.6556C17.7267 26.8182 17.7484 26.8868 17.7701 26.9699C17.9362 27.5189 18.2288 28.4977 18.46 29.1587C18.5394 29.3827 18.6334 29.6283 18.767 29.8631C18.9079 30.1159 19.0849 30.3435 19.3196 30.5024C19.6158 30.7047 19.9915 30.8419 20.3527 30.8672C20.6163 30.8853 20.8728 30.8419 21.0931 30.7264C21.3315 30.5963 21.5157 30.3868 21.6096 30.0798C21.6927 29.8125 21.6999 29.4658 21.6024 29.0287L21.5988 29.007L20.8909 26.6087L20.1793 26.5906L20.2082 26.6737ZM22.8269 31.6113C23.636 32.1098 24.8424 32.4818 26.1427 32.4746C27.1685 32.471 28.2485 32.2362 29.2418 31.6474C29.4405 31.5282 29.5886 31.893 29.4513 31.9725C28.3894 32.6046 27.2371 32.8574 26.1463 32.861C24.7665 32.8647 23.4879 32.471 22.6282 31.94C22.5596 31.7666 22.6932 31.5932 22.8269 31.6113ZM31.8027 26.7784L31.0406 29.2779C30.9683 29.5814 30.9683 29.8053 31.0153 29.9678C31.0514 30.0906 31.12 30.1737 31.2031 30.2207C31.3043 30.2785 31.4343 30.2965 31.5788 30.2893C31.8172 30.2785 32.0736 30.1882 32.2759 30.0581C32.4095 29.9678 32.5251 29.8197 32.619 29.6536C32.7238 29.473 32.8105 29.2563 32.8827 29.0576C33.1319 28.3713 33.4209 27.4358 33.5834 26.9157C33.6087 26.8254 33.6304 26.7568 33.6484 26.7026L34.3528 26.7206L34.3203 26.8073C34.2697 26.9663 34.248 27.0349 34.2228 27.1144C34.0566 27.6634 33.7532 28.6386 33.5184 29.2924C33.4353 29.5163 33.3378 29.7619 33.2042 29.9931C33.0597 30.2423 32.8791 30.4663 32.6479 30.6216C32.3481 30.8167 31.9725 30.9467 31.6113 30.9647C31.3512 30.9792 31.0948 30.9322 30.8744 30.8094C30.6433 30.6758 30.459 30.4663 30.3687 30.1557C30.2893 29.8848 30.2857 29.538 30.3868 29.1046L30.394 29.0829L31.12 26.699L31.8316 26.6954L31.8027 26.7784ZM19.1354 25.4275C19.1752 24.2356 19.6592 22.9172 20.4755 21.8083C21.2123 20.8078 22.2273 19.9698 23.4373 19.54C23.5673 19.493 23.5962 19.5544 23.6288 19.6339C23.6685 19.7314 23.6757 19.8651 23.5457 19.912C22.4223 20.3166 21.476 21.1004 20.7825 22.0395C20.0167 23.0797 19.5616 24.3114 19.5219 25.4239C19.5147 25.6009 19.1282 25.6696 19.1354 25.4275ZM28.6242 19.5111C29.7439 19.9156 30.8491 20.7861 31.6546 21.9095C32.3806 22.9244 32.8719 24.1525 32.9116 25.442C32.9152 25.5793 32.8502 25.5901 32.7671 25.5937C32.6624 25.6009 32.5323 25.5684 32.5287 25.4312C32.4818 24.232 32.023 23.0834 31.344 22.1334C30.5855 21.0787 29.556 20.2624 28.5122 19.8795C28.346 19.8181 28.4002 19.428 28.6242 19.5111Z" fill="white"/>
</g>
</g>
</g>
</svg>
