<svg width="24" height="24" viewBox="0 0 24 24" fill="none" xmlns="http://www.w3.org/2000/svg">
<path d="M17.7447 2.81274C18.7095 1.81626 20.3035 1.80337 21.2843 2.78411C22.2381 3.73799 22.2559 5.27896 21.3242 6.25456L18.5456 9.16433C18.3278 9.3924 18.2189 9.50644 18.1518 9.64C18.0924 9.75823 18.057 9.88708 18.0478 10.0191C18.0373 10.1682 18.0728 10.3218 18.1437 10.6291L19.8716 18.1167C19.9444 18.4321 19.9808 18.5898 19.969 18.7423C19.9586 18.8774 19.9209 19.0089 19.8582 19.1289C19.7873 19.2645 19.6728 19.3789 19.4439 19.6078L19.0732 19.9786C18.467 20.5847 18.164 20.8878 17.8538 20.9427C17.5829 20.9906 17.3043 20.9248 17.0834 20.7608C16.8305 20.573 16.695 20.1664 16.4239 19.3532L14.4141 13.3239L11.0688 16.6692C10.8691 16.8689 10.7693 16.9687 10.7025 17.0863C10.6433 17.1905 10.6034 17.3044 10.5845 17.4227C10.5632 17.5563 10.5788 17.6966 10.61 17.9773L10.7937 19.6307C10.8249 19.9113 10.8405 20.0517 10.8192 20.1852C10.8003 20.3035 10.7603 20.4174 10.7012 20.5216C10.6344 20.6392 10.5345 20.739 10.3348 20.9387L10.1373 21.1362C9.66428 21.6093 9.42775 21.8458 9.1649 21.9143C8.93436 21.9744 8.68993 21.9502 8.47565 21.8461C8.23134 21.7273 8.04579 21.449 7.67469 20.8924L6.10637 18.5399C6.04007 18.4404 6.00692 18.3907 5.96843 18.3456C5.93424 18.3056 5.89694 18.2683 5.85688 18.2341C5.81178 18.1956 5.76206 18.1624 5.66261 18.0961L3.31012 16.5278C2.75348 16.1567 2.47515 15.9712 2.35643 15.7269C2.2523 15.5126 2.2281 15.2681 2.28818 15.0376C2.35668 14.7747 2.59321 14.5382 3.06627 14.0652L3.26378 13.8677C3.46346 13.668 3.56331 13.5681 3.68089 13.5013C3.78505 13.4422 3.899 13.4022 4.0173 13.3833C4.15083 13.362 4.29117 13.3776 4.57184 13.4088L6.22523 13.5925C6.5059 13.6237 6.64623 13.6393 6.77977 13.618C6.89807 13.5991 7.01202 13.5592 7.11618 13.5C7.23376 13.4332 7.3336 13.3334 7.53329 13.1337L10.8786 9.78835L4.84933 7.77859C4.0361 7.50752 3.62949 7.37198 3.44169 7.11907C3.27771 6.89823 3.21193 6.6196 3.25984 6.34874C3.31471 6.03855 3.61778 5.73547 4.22393 5.12933L4.5947 4.75856C4.82359 4.52967 4.93804 4.41522 5.07363 4.34433C5.19364 4.28158 5.32514 4.24387 5.46017 4.23347C5.61272 4.22172 5.77043 4.25812 6.08584 4.3309L13.545 6.05224C13.8549 6.12377 14.0099 6.15953 14.1595 6.14889C14.304 6.13862 14.4445 6.09709 14.5713 6.02718C14.7027 5.95476 14.8133 5.84049 15.0346 5.61196L17.7447 2.81274Z" stroke="currentColor" stroke-width="currentWidth" stroke-linecap="round" stroke-linejoin="round"/>
</svg>
