<svg width="24" height="24" viewBox="0 0 24 24" fill="none" xmlns="http://www.w3.org/2000/svg">
<path d="M11.3065 3.20704C11.5339 2.81118 11.6477 2.61325 11.7963 2.54692C11.926 2.48906 12.0742 2.48906 12.2038 2.54692C12.3525 2.61325 12.4662 2.81118 12.6937 3.20704L14.6489 6.60936C14.7331 6.7559 14.7752 6.82917 14.8342 6.88242C14.8865 6.92953 14.948 6.96508 15.015 6.98677C15.0906 7.01127 15.1751 7.0111 15.3441 7.01076L19.2682 7.00282C19.7248 7.0019 19.953 7.00144 20.0848 7.09702C20.1998 7.18038 20.2738 7.30868 20.2886 7.4499C20.3054 7.61182 20.1909 7.80929 19.9618 8.20422L17.9929 11.5986C17.9081 11.7448 17.8657 11.8179 17.8491 11.8957C17.8344 11.9644 17.8344 12.0356 17.8491 12.1044C17.8657 12.1821 17.9081 12.2552 17.9929 12.4014L19.9618 15.7958C20.1909 16.1907 20.3054 16.3882 20.2886 16.5501C20.2738 16.6913 20.1998 16.8196 20.0848 16.903C19.953 16.9986 19.7248 16.9981 19.2682 16.9972L15.3441 16.9893C15.1751 16.9889 15.0906 16.9887 15.015 17.0132C14.948 17.0349 14.8865 17.0705 14.8342 17.1176C14.7752 17.1708 14.7331 17.2441 14.6489 17.3907L12.6937 20.793C12.4662 21.1888 12.3525 21.3868 12.2038 21.4531C12.0742 21.511 11.926 21.511 11.7963 21.4531C11.6477 21.3868 11.5339 21.1888 11.3064 20.793L9.35128 17.3907C9.26707 17.2441 9.22497 17.1708 9.16593 17.1176C9.11369 17.0705 9.05211 17.0349 8.98519 17.0132C8.90956 16.9887 8.82505 16.9889 8.65604 16.9893L4.73196 16.9972C4.27539 16.9981 4.04711 16.9986 3.91533 16.903C3.80039 16.8196 3.72632 16.6913 3.71159 16.5501C3.69471 16.3882 3.80925 16.1907 4.03833 15.7958L6.00725 12.4014C6.09205 12.2552 6.13445 12.1821 6.15104 12.1044C6.16572 12.0356 6.16572 11.9644 6.15104 11.8957C6.13445 11.8179 6.09205 11.7448 6.00724 11.5986L4.03833 8.20422C3.80925 7.80929 3.69471 7.61182 3.71159 7.4499C3.72632 7.30868 3.80039 7.18038 3.91533 7.09702C4.04711 7.00144 4.27539 7.0019 4.73196 7.00282L8.65604 7.01076C8.82505 7.0111 8.90956 7.01127 8.98519 6.98677C9.05211 6.96508 9.11369 6.92953 9.16593 6.88242C9.22497 6.82917 9.26707 6.7559 9.35128 6.60936L11.3065 3.20704Z" stroke="currentColor" stroke-width="currentWidth" stroke-linecap="round" stroke-linejoin="round"/>
</svg>
